<svg xmlns="http://www.w3.org/2000/svg" xmlns:xlink="http://www.w3.org/1999/xlink" width="20"  height="22" >
    <symbol xmlns="http://www.w3.org/2000/svg" viewBox="0 0 20 22" id="bookmark">
        <path d="M12.5 9.65h-5M14.82 1H5.18C3.05 1 1.32 2.74 1.32 4.86v14.09c0 1.8 1.29 2.56 2.87 1.69l4.88-2.71c.52-.29 1.36-.29 1.87 0l4.88 2.71c1.58.88 2.87.12 2.87-1.69V4.86C18.68 2.74 16.95 1 14.82 1z"/>
    </symbol>
    <symbol xmlns="http://www.w3.org/2000/svg" viewBox="0 0 20 20" id="code">
        <path d="M13.75 6.75l3.5 3.25-3.5 3.25m-7.5 0L2.75 10l3.5-3.25"/>
    </symbol>
    <symbol xmlns="http://www.w3.org/2000/svg" viewBox="0 0 22 22" id="community">
        <path d="M6 7h10M6 12h6m-4.5 6H7c-4 0-6-1-6-6V7c0-4 2-6 6-6h8c4 0 6 2 6 6v5c0 4-2 6-6 6h-.5c-.31 0-.61.15-.8.4l-1.5 2c-.66.88-1.74.88-2.4 0l-1.5-2c-.16-.22-.53-.4-.8-.4z"/>
    </symbol>
    <symbol xmlns="http://www.w3.org/2000/svg" stroke-width="2" stroke-linecap="round" stroke-linejoin="round" viewBox="0 0 24 24" id="download">
        <path d="M8 17l4 4 4-4m-4-5v9"/>
        <path d="M20.88 18.09A5 5 0 0018 9h-1.26A8 8 0 103 16.29"/>
    </symbol>
    <symbol xmlns="http://www.w3.org/2000/svg" viewBox="0 0 20 20" id="edit">
        <path d="M11.747 18.443H19M9.02 4l5.453 4.187M10.78 1.795a2.245 2.245 0 013.116-.303l1.733 1.347a2.142 2.142 0 01.72 2.984c-.034.054-9.537 11.942-9.537 11.942a1.699 1.699 0 01-1.31.632l-3.638.046-.82-3.47a1.63 1.63 0 01.316-1.396l9.42-11.782z"/>
    </symbol>
    <symbol xmlns="http://www.w3.org/2000/svg" viewBox="0 0 20 22" id="notification">
        <path d="M12.389 19.857c-1.364 1.515-3.492 1.533-4.87 0M10 16.847c5.64 0 8.248-.723 8.5-3.627 0-2.901-1.819-2.715-1.819-6.275C16.681 4.165 14.045 1 10 1S3.319 4.164 3.319 6.945c0 3.56-1.819 3.374-1.819 6.275.253 2.915 2.862 3.628 8.5 3.628z"/>
    </symbol>
    <symbol xmlns="http://www.w3.org/2000/svg" viewBox="0 0 22 20" id="see">
        <path d="M14.58 10c0 1.98-1.6 3.58-3.58 3.58S7.42 11.98 7.42 10 9.02 6.42 11 6.42s3.58 1.6 3.58 3.58z"/>
        <path d="M11 18.27c3.53 0 6.82-2.08 9.11-5.68.9-1.41.9-3.78 0-5.19-2.29-3.6-5.58-5.68-9.11-5.68-3.53 0-6.82 2.08-9.11 5.68-.9 1.41-.9 3.78 0 5.19 2.29 3.6 5.58 5.68 9.11 5.68z"/>
    </symbol>
    <symbol xmlns="http://www.w3.org/2000/svg" viewBox="0 0 22 22" id="image">
        <path d="M1.67 17.95L6.6 14.64C7.39 14.11 8.53 14.17 9.24 14.78L9.57 15.07C10.35 15.74 11.61 15.74 12.39 15.07L16.55 11.5C17.33 10.83 18.59 10.83 19.37 11.5L21 12.9M8 21H14C19 21 21 19 21 14V8C21 3 19 1 14 1H8C3 1 1 3 1 8V14C1 19 3 21 8 21ZM10 7C10 8.10457 9.10457 9 8 9C6.89543 9 6 8.10457 6 7C6 5.89543 6.89543 5 8 5C9.10457 5 10 5.89543 10 7Z"/>
    </symbol>
    <symbol xmlns="http://www.w3.org/2000/svg" viewBox="0 0 20 18" id="text">
        <path d="M12 1.5H19M12 6.5H19M1 11.5H19M1 16.5H19M7.5 5.43V2.57C7.5 1.45 7.05 1 5.92 1H3.07C1.95 1 1.5 1.45 1.5 2.57V5.42C1.5 6.55 1.95 7 3.07 7H5.92C7.05 7 7.5 6.55 7.5 5.43Z" stroke="#292D32" stroke-width="1.5" stroke-linecap="round" stroke-linejoin="round"/>
    </symbol>
    <symbol xmlns="http://www.w3.org/2000/svg" viewBox="0 0 24 24" id="more">
        <circle cx="12" cy="12" r="1"/>
        <circle cx="12" cy="5" r="1"/>
        <circle cx="12" cy="19" r="1"/>
    </symbol>
    <symbol xmlns="http://www.w3.org/2000/svg" viewBox="0 0 14 14" id="add">
        <path d="M1 7H13M7 13V1" stroke-linecap="round" stroke-linejoin="round"/>
    </symbol>
    <symbol xmlns="http://www.w3.org/2000/svg" viewBox="0 0 20 20" id="filter">
        <path fill-rule="evenodd" clip-rule="evenodd" d="M2.56517 1C1.70108 1 1 1.71286 1 2.5904V3.52644C1 4.17647 1.24719 4.80158 1.68936 5.27177L6.5351 10.4243L6.53723 10.4211C7.47271 11.3788 7.99905 12.6734 7.99905 14.0233V18.5952C7.99905 18.9007 8.31869 19.0957 8.58399 18.9516L11.3436 17.4479C11.7602 17.2204 12.0201 16.7784 12.0201 16.2984V14.0114C12.0201 12.6691 12.539 11.3799 13.466 10.4243L18.3117 5.27177C18.7528 4.80158 19 4.17647 19 3.52644V2.5904C19 1.71286 18.3 1 17.4359 1H2.56517Z" stroke-linecap="round" stroke-linejoin="round"/>
    </symbol>
    <symbol xmlns="http://www.w3.org/2000/svg" viewBox="0 0 22 22" id="design">
        <path d="M10.47 5H15.47M10.47 17H14.47M10.47 12.95L15.47 13M10.47 9H13.47M7.44 6H1.53M20.47 18V4C20.47 2 19.47 1 17.47 1H13.47C11.47 1 10.47 2 10.47 4V18C10.47 20 11.47 21 13.47 21H17.47C19.47 21 20.47 20 20.47 18ZM4.49 1C2.86 1 1.53 2.33 1.53 3.95V16.91C1.53 17.36 1.72 18.04 1.95 18.43L2.77 19.79C3.71 21.36 5.26 21.36 6.2 19.79L7.02 18.43C7.25 18.04 7.44 17.36 7.44 16.91V3.95C7.44 2.33 6.11 1 4.49 1Z" stroke-linecap="round"/>
    </symbol>
    <symbol xmlns="http://www.w3.org/2000/svg" viewBox="0 0 14 16" id="playground">
        <path d="M1 5.32992C1 2.01992 3.35 0.659923 6.22 2.31992L10.84 4.99992C13.71 6.65992 13.71 9.36992 10.84 11.0299L6.22 13.7099C3.35 15.3399 1 13.9899 1 10.6699V5.32992Z" stroke-miterlimit="10" stroke-linecap="round" stroke-linejoin="round"/>
    </symbol>
    <symbol xmlns="http://www.w3.org/2000/svg" viewBox="0 0 22 22" id="article">
        <path d="M21 9V14C21 19 19 21 14 21H8C3 21 1 19 1 14V8C1 3 3 1 8 1H13M21 9H17C14 9 13 8 13 5V1M21 9L13 1M6 12H12M6 16H10" stroke-linecap="round" stroke-linejoin="round"/>
    </symbol>
    <symbol xmlns="http://www.w3.org/2000/svg" viewBox="0 0 18 18" id="upload">
        <path d="M6.32 3.49994L8.88 0.939941L11.44 3.49994M8.88 11.1799V1.00994M1 8.99994C1 13.4199 4 16.9999 9 16.9999C14 16.9999 17 13.4199 17 8.99994" stroke-miterlimit="10" stroke-linecap="round" stroke-linejoin="round"/>
    </symbol>
    <symbol xmlns="http://www.w3.org/2000/svg" viewBox="0 0 24 24" id="close">
        <line x1="18" y1="6" x2="6" y2="18"/>
        <line x1="6" y1="6" x2="18" y2="18"/>
    </symbol>
    <symbol xmlns="http://www.w3.org/2000/svg" viewBox="0 0 22 22" id="inbox">
        <path d="M1 12H4.76C5.52 12 6.21 12.43 6.55 13.11L7.44 14.9C8 16 9 16 9.24 16H12.77C13.53 16 14.22 15.57 14.56 14.89L15.45 13.1C15.79 12.42 16.48 11.99 17.24 11.99H20.98M8 21H14C19 21 21 19 21 14V8C21 3 19 1 14 1H8C3 1 1 3 1 8V14C1 19 3 21 8 21Z" stroke-linecap="round" stroke-linejoin="round"/>
    </symbol>
    <symbol xmlns="http://www.w3.org/2000/svg" viewBox="0 0 20 22" id="bag">
        <path d="M5.49999 6.67001V5.70001C5.49999 3.45001 7.30999 1.24001 9.55999 1.03001C12.24 0.770009 14.5 2.88001 14.5 5.51001V6.89001M13.4955 11H13.5045M6.4945 11H6.50348M6.99999 21H13C17.02 21 17.74 19.39 17.95 17.43L18.7 11.43C18.97 8.99001 18.27 7.00001 14 7.00001H5.99999C1.72999 7.00001 1.02999 8.99001 1.29999 11.43L2.04999 17.43C2.25999 19.39 2.97999 21 6.99999 21Z" stroke-linecap="round" stroke-linejoin="round"/>
    </symbol>
    <symbol xmlns="http://www.w3.org/2000/svg" viewBox="0 0 22 22" id="home">
        <path d="M11 16.99V13.99M8.02 1.84004L2.63 6.04004C1.73 6.74004 1 8.23004 1 9.36004V16.77C1 19.09 2.89 20.99 5.21 20.99H16.79C19.11 20.99 21 19.09 21 16.78V9.50004C21 8.29004 20.19 6.74004 19.2 6.05004L13.02 1.72004C11.62 0.74004 9.37 0.79004 8.02 1.84004Z" stroke-linecap="round" stroke-linejoin="round"/>
    </symbol>
    <symbol xmlns="http://www.w3.org/2000/svg" viewBox="0 0 20 22" id="html">
        <path d="M14.2001 5.8H5.8001L6.2001 10.2H13.8001L13.2001 15.2L9.8001 16.2L6.2001 15.2V13.2M2.1001 1H17.9001C18.5001 1 19.0001 1.5 18.9001 2.1L17.1001 18.3C17.1001 18.7 16.8001 19 16.4001 19.2L10.3001 20.9C10.1001 21 9.9001 21 9.8001 20.9L3.7001 19.2C3.3001 19.1 3.0001 18.8 3.0001 18.3L1.1001 2.1C1.1001 1.5 1.5001 1 2.1001 1Z" stroke-miterlimit="10" stroke-linecap="round" stroke-linejoin="round"/>
    </symbol>
    <symbol xmlns="http://www.w3.org/2000/svg" viewBox="0 0 22 22" id="game">
        <path d="M8.57 11.46L5.52 14.51M5.55 11.49L8.6 14.54M12.53 13H12.54M16.47 13H16.48M14.5 14.98V14.96M14.5 11.04V11.02M12.01 1L12 2.01C11.99 2.56 11.55 3 11 3H10.97C10.42 3 9.98 3.45 9.98 4C9.98 4.55 10.43 5 10.98 5H11.98M8 21H14C19 21 21 19 21 14V12C21 7 19 5 14 5H8C3 5 1 7 1 12V14C1 19 3 21 8 21Z" stroke-linecap="round" stroke-linejoin="round"/>
    </symbol>
    <symbol xmlns="http://www.w3.org/2000/svg" viewBox="0 0 22 22" id="category">
        <path d="M13.6 11.58V14.31C13.6 16.59 12.69 17.5 10.41 17.5H7.69C5.42 17.5 4.5 16.59 4.5 14.31V11.58C4.5 9.31 5.41 8.4 7.69 8.4H10.42C12.69 8.4 13.6 9.31 13.6 11.58ZM13.6 11.58V13.6H14.31C16.59 13.6 17.5 12.69 17.5 10.41V7.68C17.5 5.41 16.59 4.5 14.32 4.5H11.59C9.31 4.5 8.4 5.4 8.4 7.68V8.4H10.41C12.69 8.4 13.6 9.31 13.6 11.58ZM21 14C21 17.87 17.87 21 14 21L15.05 19.25M1 8C1 4.13 4.13 1 8 1L6.95 2.75" stroke-linecap="round" stroke-linejoin="round"/>
    </symbol>
    <symbol xmlns="http://www.w3.org/2000/svg" viewBox="0 0 22 22" id="users">
        <path d="M15.41 3C17.35 3 18.91 4.57 18.91 6.5C18.91 8.39 17.41 9.93 15.54 10C15.46 9.99 15.37 9.99 15.28 10M17.34 19C18.06 18.85 18.74 18.56 19.3 18.13C20.86 16.96 20.86 15.03 19.3 13.86C18.75 13.44 18.08 13.16 17.37 13M8.15997 9.87C8.05997 9.86 7.93997 9.86 7.82997 9.87C5.44997 9.79 3.55997 7.84 3.55997 5.44C3.55997 2.99 5.53997 1 7.99997 1C10.45 1 12.44 2.99 12.44 5.44C12.43 7.84 10.54 9.79 8.15997 9.87ZM3.15997 13.56C0.739971 15.18 0.739971 17.82 3.15997 19.43C5.90997 21.27 10.42 21.27 13.17 19.43C15.59 17.81 15.59 15.17 13.17 13.56C10.43 11.73 5.91997 11.73 3.15997 13.56Z" stroke-linecap="round" stroke-linejoin="round"/>
    </symbol>
    <symbol xmlns="http://www.w3.org/2000/svg" viewBox="0 0 22 22" id="collections">
        <path d="M5.82 3.99C2.41 4.56 1 6.66 1 10.9V13.93C1 18.98 3 21 8 21H14C19 21 21 18.98 21 13.93V10.9C21 6.59 19.54 4.48 16 3.96M13 1C15 1 16 2.01 16 4.03V11.08C16 13.07 14.59 13.84 12.86 12.8L11.54 12C11.24 11.82 10.76 11.82 10.46 12L9.14 12.8C7.41 13.84 6 13.07 6 11.08V4.03C6 2.01 7 1 9 1H13Z" stroke-linecap="round" stroke-linejoin="round"/>
    </symbol>
    <symbol xmlns="http://www.w3.org/2000/svg" viewBox="0 0 22 22" id="settings">
        <path d="M11 13.9999C12.6569 13.9999 14 12.6568 14 10.9999C14 9.34308 12.6569 7.99994 11 7.99994C9.34315 7.99994 8 9.34308 8 10.9999C8 12.6568 9.34315 13.9999 11 13.9999Z" stroke-miterlimit="10" stroke-linecap="round" stroke-linejoin="round"/>
        <path d="M1 11.8799V10.1199C1 9.07994 1.85 8.21994 2.9 8.21994C4.71 8.21994 5.45 6.93994 4.54 5.36994C4.02 4.46994 4.33 3.29994 5.24 2.77994L6.97 1.78994C7.76 1.31994 8.78 1.59994 9.25 2.38994L9.36 2.57994C10.26 4.14994 11.74 4.14994 12.65 2.57994L12.76 2.38994C13.23 1.59994 14.25 1.31994 15.04 1.78994L16.77 2.77994C17.68 3.29994 17.99 4.46994 17.47 5.36994C16.56 6.93994 17.3 8.21994 19.11 8.21994C20.15 8.21994 21.01 9.06994 21.01 10.1199V11.8799C21.01 12.9199 20.16 13.7799 19.11 13.7799C17.3 13.7799 16.56 15.0599 17.47 16.6299C17.99 17.5399 17.68 18.6999 16.77 19.2199L15.04 20.2099C14.25 20.6799 13.23 20.3999 12.76 19.6099L12.65 19.4199C11.75 17.8499 10.27 17.8499 9.36 19.4199L9.25 19.6099C8.78 20.3999 7.76 20.6799 6.97 20.2099L5.24 19.2199C4.33 18.6999 4.02 17.5299 4.54 16.6299C5.45 15.0599 4.71 13.7799 2.9 13.7799C1.85 13.7799 1 12.9199 1 11.8799Z" stroke-miterlimit="10" stroke-linecap="round" stroke-linejoin="round"/>
    </symbol>
    <symbol xmlns="http://www.w3.org/2000/svg" viewBox="0 0 22 22" id="tool">
        <path d="M7.01 3V1M11 3V1M15 3V1M19 7H21M19 11H21M19 15H21M15 19V21M11.01 19V21M7.01 19V21M1 7H3M1 11H3M1 15H3M8.6 19H13.4C17.4 19 19 17.4 19 13.4V8.6C19 4.6 17.4 3 13.4 3H8.6C4.6 3 3 4.6 3 8.6V13.4C3 17.4 4.6 19 8.6 19ZM9.5 16H12.5C15 16 16 15 16 12.5V9.5C16 7 15 6 12.5 6H9.5C7 6 6 7 6 9.5V12.5C6 15 7 16 9.5 16Z" stroke-linecap="round" stroke-linejoin="round"/>
    </symbol>
    <symbol xmlns="http://www.w3.org/2000/svg" viewBox="0 0 22 22" id="trend">
        <path d="M5.50002 21H16.5M8.50002 13H13.5M15.7 17.98H6.30002C5.88002 17.98 5.41002 17.65 5.27002 17.25L1.13002 5.66999C0.540016 4.00999 1.23002 3.49999 2.65002 4.51999L6.55002 7.30999C7.20002 7.75999 7.94002 7.52999 8.22002 6.79999L9.98002 2.10999C10.54 0.609985 11.47 0.609985 12.03 2.10999L13.79 6.79999C14.07 7.52999 14.81 7.75999 15.45 7.30999L19.11 4.69999C20.67 3.57999 21.42 4.14999 20.78 5.95999L16.74 17.27C16.59 17.65 16.12 17.98 15.7 17.98Z" stroke-linecap="round" stroke-linejoin="round"/>
    </symbol>
    <symbol xmlns="http://www.w3.org/2000/svg" viewBox="0 0 22 20" id="like">
        <path d="M15 4.7a2.781 2.781 0 011.917 2.422M1.872 9.598c-1.073-3.35.18-7.179 3.698-8.312a6.007 6.007 0 015.43.912c1.455-1.125 3.572-1.505 5.42-.912 3.517 1.133 4.779 4.962 3.707 8.312-1.67 5.31-9.127 9.4-9.127 9.4s-7.402-4.028-9.128-9.4z"/>
    </symbol>
    <symbol xmlns="http://www.w3.org/2000/svg" viewBox="0 0 24 22" id="share">
        <path d="M8.5 2.99997H1.5M7.5 19H1.5M4.5 11H1.5M9.32 12.28H12.41V19.48C12.41 20.54 13.73 21.04 14.43 20.24L22 11.64C22.66 10.89 22.13 9.71997 21.13 9.71997H18.04V2.51997C18.04 1.45997 16.72 0.959969 16.02 1.75997L8.45 10.36C7.8 11.11 8.33 12.28 9.32 12.28Z" stroke-miterlimit="10" stroke-linecap="round" stroke-linejoin="round"/>
    </symbol>
    <symbol xmlns="http://www.w3.org/2000/svg" viewBox="0 0 22 22" id="fullscreen">
        <path d="M1 8V5.5C1 3.01 3.01 1 5.5 1H8M14 1H16.5C18.99 1 21 3.01 21 5.5V8M21 15V16.5C21 18.99 18.99 21 16.5 21H15M8 21H5.5C3.01 21 1 18.99 1 16.5V14" stroke-linecap="round" stroke-linejoin="round"/>
    </symbol>
    <symbol xmlns="http://www.w3.org/2000/svg" viewBox="0 0 23 22" id="wallet">
        <path d="M1.5 11.4101V6.8401C1.5 5.6501 2.23 4.59006 3.34 4.17006L11.28 1.17006C12.52 0.70006 13.85 1.62009 13.85 2.95009V6.75008M6 11.0001H13M17.04 12.55C16.62 12.96 16.38 13.5501 16.44 14.1801C16.53 15.2601 17.52 16.05 18.6 16.05H20.5V17.2401C20.5 19.3101 18.81 21.0001 16.74 21.0001H5.26C3.19 21.0001 1.5 19.3101 1.5 17.2401V10.5101C1.5 8.44007 3.19 6.75006 5.26 6.75006H16.74C18.81 6.75006 20.5 8.44007 20.5 10.5101V11.9501H18.48C17.92 11.9501 17.41 12.17 17.04 12.55ZM21.5588 12.9702V15.0303C21.5588 15.5803 21.1188 16.0302 20.5588 16.0502H18.5988C17.5188 16.0502 16.5288 15.2602 16.4388 14.1802C16.3788 13.5502 16.6188 12.9602 17.0388 12.5502C17.4088 12.1702 17.9188 11.9503 18.4788 11.9503H20.5588C21.1188 11.9703 21.5588 12.4202 21.5588 12.9702Z" stroke-linecap="round" stroke-linejoin="round"/>
    </symbol>
    <symbol id="facebook" viewBox="0 0 512 512"> 
        <path d="M288,176v-64c0-17.664,14.336-32,32-32h32V0h-64c-53.024,0-96,42.976-96,96v80h-64v80h64v256h96V256h64l32-80H288z"/>
    </symbol>
    <symbol id="twitter" viewBox="0 0 512 512"> 
        <path d="M512,97.248c-19.04,8.352-39.328,13.888-60.48,16.576c21.76-12.992,38.368-33.408,46.176-58.016 c-20.288,12.096-42.688,20.64-66.56,25.408C411.872,60.704,384.416,48,354.464,48c-58.112,0-104.896,47.168-104.896,104.992 c0,8.32,0.704,16.32,2.432,23.936c-87.264-4.256-164.48-46.08-216.352-109.792c-9.056,15.712-14.368,33.696-14.368,53.056 c0,36.352,18.72,68.576,46.624,87.232c-16.864-0.32-33.408-5.216-47.424-12.928c0,0.32,0,0.736,0,1.152 c0,51.008,36.384,93.376,84.096,103.136c-8.544,2.336-17.856,3.456-27.52,3.456c-6.72,0-13.504-0.384-19.872-1.792 c13.6,41.568,52.192,72.128,98.08,73.12c-35.712,27.936-81.056,44.768-130.144,44.768c-8.608,0-16.864-0.384-25.12-1.44 C46.496,446.88,101.6,464,161.024,464c193.152,0,298.752-160,298.752-298.688c0-4.64-0.16-9.12-0.384-13.568 C480.224,136.96,497.728,118.496,512,97.248z"/>
    </symbol>
    <symbol id="instagram" viewBox="0 0 169.063 169.063"> 
        <path d="M122.406,0H46.654C20.929,0,0,20.93,0,46.655v75.752c0,25.726,20.929,46.655,46.654,46.655h75.752 c25.727,0,46.656-20.93,46.656-46.655V46.655C169.063,20.93,148.133,0,122.406,0z M154.063,122.407 c0,17.455-14.201,31.655-31.656,31.655H46.654C29.2,154.063,15,139.862,15,122.407V46.655C15,29.201,29.2,15,46.654,15h75.752 c17.455,0,31.656,14.201,31.656,31.655V122.407z"/>
        <path d="M84.531,40.97c-24.021,0-43.563,19.542-43.563,43.563c0,24.02,19.542,43.561,43.563,43.561s43.563-19.541,43.563-43.561 C128.094,60.512,108.552,40.97,84.531,40.97z M84.531,113.093c-15.749,0-28.563-12.812-28.563-28.561 c0-15.75,12.813-28.563,28.563-28.563s28.563,12.813,28.563,28.563C113.094,100.281,100.28,113.093,84.531,113.093z"/>
        <path d="M129.921,28.251c-2.89,0-5.729,1.17-7.77,3.22c-2.051,2.04-3.23,4.88-3.23,7.78c0,2.891,1.18,5.73,3.23,7.78 c2.04,2.04,4.88,3.22,7.77,3.22c2.9,0,5.73-1.18,7.78-3.22c2.05-2.05,3.22-4.89,3.22-7.78c0-2.9-1.17-5.74-3.22-7.78 C135.661,29.421,132.821,28.251,129.921,28.251z"/>
    </symbol>
    <symbol id="youtube" viewBox="-21 -117 682.66672 682"> 
        <path d="m626.8125 64.035156c-7.375-27.417968-28.992188-49.03125-56.40625-56.414062-50.082031-13.703125-250.414062-13.703125-250.414062-13.703125s-200.324219 0-250.40625 13.183593c-26.886719 7.375-49.03125 29.519532-56.40625 56.933594-13.179688 50.078125-13.179688 153.933594-13.179688 153.933594s0 104.378906 13.179688 153.933594c7.382812 27.414062 28.992187 49.027344 56.410156 56.410156 50.605468 13.707031 250.410156 13.707031 250.410156 13.707031s200.324219 0 250.40625-13.183593c27.417969-7.378907 49.03125-28.992188 56.414062-56.40625 13.175782-50.082032 13.175782-153.933594 13.175782-153.933594s.527344-104.382813-13.183594-154.460938zm-370.601562 249.878906v-191.890624l166.585937 95.945312zm0 0"/>
    </symbol>
  <symbol id="whatsapp" viewBox="0 0 448 512">
    <path d="M380.9 97.1C339 55.1 283.2 32 223.9 32c-122.4 0-222 99.6-222 222 0 39.1 10.2 77.3 29.6 111L0 480l117.7-30.9c32.4 17.7 68.9 27 106.1 27h.1c122.3 0 224.1-99.6 224.1-222 0-59.3-25.2-115-67.1-157zm-157 341.6c-33.2 0-65.7-8.9-94-25.7l-6.7-4-69.8 18.3L72 359.2l-4.4-7c-18.5-29.4-28.2-63.3-28.2-98.2 0-101.7 82.8-184.5 184.6-184.5 49.3 0 95.6 19.2 130.4 54.1 34.8 34.9 56.2 81.2 56.1 130.5 0 101.8-84.9 184.6-186.6 184.6zm101.2-138.2c-5.5-2.8-32.8-16.2-37.9-18-5.1-1.9-8.8-2.8-12.5 2.8-3.7 5.6-14.3 18-17.6 21.8-3.2 3.7-6.5 4.2-12 1.4-32.6-16.3-54-29.1-75.5-66-5.7-9.8 5.7-9.1 16.3-30.3 1.8-3.7.9-6.9-.5-9.7-1.4-2.8-12.5-30.1-17.1-41.2-4.5-10.8-9.1-9.3-12.5-9.5-3.2-.2-6.9-.2-10.6-.2-3.7 0-9.7 1.4-14.8 6.9-5.1 5.6-19.4 19-19.4 46.3 0 27.3 19.9 53.7 22.6 57.4 2.8 3.7 39.1 59.7 94.8 83.8 35.2 15.2 49 16.5 66.6 13.9 10.7-1.6 32.8-13.4 37.4-26.4 4.6-13 4.6-24.1 3.2-26.4-1.3-2.5-5-3.9-10.5-6.6z"/>
  </symbol>
  <symbol id="telegram" viewBox="0 0 496 512">
    <path d="M248 8C111 8 0 119 0 256s111 248 248 248 248-111 248-248S385 8 248 8zm121.8 169.9l-40.7 191.8c-3 13.6-11.1 16.9-22.4 10.5l-62-45.7-29.9 28.8c-3.3 3.3-6.1 6.1-12.5 6.1l4.4-63.1 114.9-103.8c5-4.4-1.1-6.9-7.7-2.5l-142 89.4-61.2-19.1c-13.3-4.2-13.6-13.3 2.8-19.7l239.1-92.2c11.1-4 20.8 2.7 17.2 19.5z"/>
  </symbol>
</svg>